<!DOCTYPE svg PUBLIC "-//W3C//DTD SVG 1.1//EN" "http://www.w3.org/Graphics/SVG/1.1/DTD/svg11.dtd">
<!-- Uploaded to: SVG Repo, www.svgrepo.com, Transformed by: SVG Repo Mixer Tools -->
<svg width="85px" height="85px" viewBox="0 0 64 64" xmlns="http://www.w3.org/2000/svg" xmlns:xlink="http://www.w3.org/1999/xlink" aria-hidden="true" role="img" class="iconify iconify--emojione-monotone" preserveAspectRatio="xMidYMid meet" fill="#fafafa" stroke="#fafafa">
<g id="SVGRepo_bgCarrier" stroke-width="0"/>
<g id="SVGRepo_tracerCarrier" stroke-linecap="round" stroke-linejoin="round"/>
<g id="SVGRepo_iconCarrier">
<path d="M59.965 2.643L2.643 59.966C1.523 61.085 1.904 62 3.486 62h.737v-2.499h.943V62h1.846v-2.499h.942V62h1.847v-2.499h.942V62h1.846v-4.698h.943V62h2.001v-2.499h.944V62h1.846v-2.499h.942V62h1.847v-2.499h.943V62h1.846v-4.698h.941V62h2.003v-2.499h.942V62h1.847v-2.499h.943V62h1.845v-2.499h.944V62h1.847v-4.698h.941V62h2.003v-2.499h.942V62h1.846v-2.499h.944V62h1.846v-2.499h.942V62h1.847v-4.698h.942V62h2.002v-2.499h.943V62h1.846v-2.499h.943V62h1.846v-2.499h.941V62h1.848v-4.698h.943V62h.34A2.887 2.887 0 0 0 62 59.122V3.486c0-1.583-.917-1.963-2.035-.843zM48.717 45.838a2.887 2.887 0 0 1-2.878 2.878H35.564c-1.583 0-1.961-.916-.844-2.034l11.96-11.959c1.119-1.118 2.036-.739 2.036.844v10.271z" fill="#2deb5d"/>
</g>
</svg>