<!DOCTYPE svg PUBLIC "-//W3C//DTD SVG 1.1//EN" "http://www.w3.org/Graphics/SVG/1.1/DTD/svg11.dtd">
<!-- Uploaded to: SVG Repo, www.svgrepo.com, Transformed by: SVG Repo Mixer Tools -->
<svg fill="#ffffff" width="85px" height="85px" viewBox="0 0 24 24" id="left-direction-3" data-name="Flat Line" xmlns="http://www.w3.org/2000/svg" class="icon flat-line">
<g id="SVGRepo_bgCarrier" stroke-width="0"/>
<g id="SVGRepo_tracerCarrier" stroke-linecap="round" stroke-linejoin="round"/>
<g id="SVGRepo_iconCarrier">
<path id="secondary" d="M3.38,12.67,6.5,14.75A1,1,0,0,0,8,14.08V9.92a1,1,0,0,0-1.5-.67L3.38,11.33A.79.79,0,0,0,3.38,12.67Z" style="fill: #05434d; stroke-width: 2;"/>
<path id="primary" d="M21,12H8m-4.62.67L6.5,14.75A1,1,0,0,0,8,14.08V9.92a1,1,0,0,0-1.5-.67L3.38,11.33A.79.79,0,0,0,3.38,12.67Z" style="fill: none; stroke: #aef9e7; stroke-linecap: round; stroke-linejoin: round; stroke-width: 2;"/>
</g>
</svg>