<!DOCTYPE svg PUBLIC "-//W3C//DTD SVG 1.1//EN" "http://www.w3.org/Graphics/SVG/1.1/DTD/svg11.dtd">
<!-- Uploaded to: SVG Repo, www.svgrepo.com, Transformed by: SVG Repo Mixer Tools -->
<svg fill="#ffb3f9" width="85px" height="85px" viewBox="0 0 24 24" xmlns="http://www.w3.org/2000/svg" stroke="#ffb3f9">
<g id="SVGRepo_bgCarrier" stroke-width="0"/>
<g id="SVGRepo_tracerCarrier" stroke-linecap="round" stroke-linejoin="round"/>
<g id="SVGRepo_iconCarrier">
<path d="M5.063,20.351A1,1,0,0,0,6,21H18a1,1,0,0,0,.937-.649l3-8a1.009,1.009,0,0,0,0-.7l-3-8A1,1,0,0,0,18,3H6a1,1,0,0,0-.937.649l-3,8a1.009,1.009,0,0,0,0,.7ZM6.693,5H17.307l2.625,7-2.625,7H6.693L4.068,12Z"/>
</g>
</svg>